<?xml version="1.0" encoding="utf-8"?>
<!-- Generator: Adobe Illustrator 16.0.0, SVG Export Plug-In . SVG Version: 6.00 Build 0)  -->
<!DOCTYPE svg PUBLIC "-//W3C//DTD SVG 1.1//EN" "http://www.w3.org/Graphics/SVG/1.1/DTD/svg11.dtd">
<svg version="1.1" id="Layer_1" xmlns="http://www.w3.org/2000/svg" xmlns:xlink="http://www.w3.org/1999/xlink" x="0px" y="0px"
	 width="8000px" height="4000px" viewBox="-326.53 -722.55 8000 4000" enable-background="new -326.53 -722.55 8000 4000"
	 xml:space="preserve">
<path fill="#010101" d="M7393.772,963.022l-52.942-199.056h-44.416v-81.928h-76.898v81.928h-37.794v-81.928h-76.899v81.928h-355.807
	v72.855h-84.782l-59.951,137.255h-59.34v185.293l-142.681,99.376V647.467l-39.833-244.955h-215.095v105.952h-88.974V402.512
	h-215.094v511.616l-52.585,188.037V812.89l-42.22-11.946V644.346h-318.365l-25.53,59.291l-98.669-27.924l-29.562,198.63h-377.328
	l4.479-301.663l-238.116-18.361v369.364c-44.63,0-82.726,30.302-97.744,72.955V489.609v-55.594v-83.294H4431.68l-29.659,83.294
	h-54.576V33.989H3976.64l-24.599,743.136h-41.08v-73.741h-45.184l-6.517-317.173h-10.332l-7.819,317.173h-300.958v127.071h-78.242
	l-14.368,296.366l-122.367-51.547l-93.256,57.685v-43.756h20.253v-56.501h-20.253v-53.578h21.556V922.62h-21.556V809.216H3013.17
	V665.41l-83.188-26.958V146.066l61.619-31.089V48.194h-61.619h-104.756v-133.57h-332.754l-30.81,133.567h-73.946h-61.62v66.783
	l61.62,31.089l-23.816,795.89h-98.927V639.651L1902.127,441.41l-76.711,180.556l-25.194-472.538l-66.427-133.954L1660.81,52.11
	l-52.134-36.637l-293.487,133.954v620.179l-125.274-36.152l-19.771,11.701l-15.941-32.597l-27.642,15.878l16.124,32.968
	l-23.448,13.875l-16.278-33.284l-27.642,15.877l16.461,33.655l-20.594,12.187l-16.595-33.933l-27.641,15.876l16.777,34.306
	l-35.884,21.237v236.682l-180.852,178.514l-6.392-83.427l-141.327,0.003l-11.805-257.296l-14.707-48.654l-132.414-35.254V685.169
	h-22.256L340.858,520.87l-157.23,164.299h-22.257V831.77L29.727,867.021h-0.77L14.25,915.675h0.77l-0.039,69.969l-188.216,29.966
	v65.257H-276.53v1559.41h103.296h319.149H7623.47v-615.639v-29.395V963.021L7393.772,963.022L7393.772,963.022z M146.667,964.481
	H78.75v-48.801h82.624L146.667,964.481z M535.052,964.481l-14.708-48.801l80.453,9.165l2.942,39.636H535.052z M2356.961,1173.924
	h-91.985v-148.18h96.418L2356.961,1173.924z M5048.349,1089.204l-18.187-52.171h-66.325v-84.437h307.108l4.926,136.61h-227.522
	V1089.204z M6402.27,1843.569v-2.822l3.491,2.822H6402.27z"/>
</svg>
