<?xml version="1.0" encoding="UTF-8" standalone="no"?>
<!-- Generator: Adobe Illustrator 16.0.0, SVG Export Plug-In . SVG Version: 6.00 Build 0)  -->

<svg
   xmlns:dc="http://purl.org/dc/elements/1.1/"
   xmlns:cc="http://creativecommons.org/ns#"
   xmlns:rdf="http://www.w3.org/1999/02/22-rdf-syntax-ns#"
   xmlns:svg="http://www.w3.org/2000/svg"
   xmlns="http://www.w3.org/2000/svg"
   xmlns:sodipodi="http://sodipodi.sourceforge.net/DTD/sodipodi-0.dtd"
   xmlns:inkscape="http://www.inkscape.org/namespaces/inkscape"
   version="1.1"
   id="Layer_1"
   x="0px"
   y="0px"
   width="7880.001"
   height="2191.0759"
   viewBox="0 -766.505 7880.0006 2191.0759"
   enable-background="new 0 -766.505 9045.234 3035.413"
   xml:space="preserve"
   inkscape:version="0.91 r13725"
   sodipodi:docname="skylineback.svg"><metadata
     id="metadata9"><rdf:RDF><cc:Work
         rdf:about=""><dc:format>image/svg+xml</dc:format><dc:type
           rdf:resource="http://purl.org/dc/dcmitype/StillImage" /><dc:title></dc:title></cc:Work></rdf:RDF></metadata><defs
     id="defs7" /><sodipodi:namedview
     pagecolor="#ffffff"
     bordercolor="#666666"
     borderopacity="1"
     objecttolerance="10"
     gridtolerance="10"
     guidetolerance="10"
     inkscape:pageopacity="0"
     inkscape:pageshadow="2"
     inkscape:window-width="1920"
     inkscape:window-height="1017"
     id="namedview5"
     showgrid="false"
     inkscape:zoom="0.18011408"
     inkscape:cx="5320.8214"
     inkscape:cy="1560.7868"
     inkscape:window-x="2552"
     inkscape:window-y="-8"
     inkscape:window-maximized="1"
     inkscape:current-layer="Layer_1"
     fit-margin-top="0"
     fit-margin-left="-10"
     fit-margin-right="-10"
     fit-margin-bottom="-10" /><path
     d="m 7612.8118,-217.818 0,-56.163 0,-39.765 -198.395,-31.586 0,-211.453 -98.619,-61.005 -118.31,49.838 -62.973,-60.544 -116.188,27.807 -82.994,-27.807 -467.205,101.665 0,225.313 -16.951,-10.034 16.018,-32.746 -26.387,-15.156 -15.842,32.392 -19.658,-11.633 15.713,-32.125 -26.386,-15.156 -15.538,31.771 -22.381,-13.244 15.391,-31.468 -26.387,-15.156 -15.216,31.114 -18.872,-11.17 -256.406,73.995 0,-318.507 -280.146,-127.864 -49.764,34.971 -69.669,-34.971 -54.803,110.51 -315.402,172.322 0,279.512 -119.121,3.573 -12.297,-269.58 -74.686,0 0,-128.935 -287.275,0 -23.546,0 -43.129,0 0,74.822 -102.289,0 0,339.989 -220.864,6.625 0,-35.898 -60.359,0 0,37.71 -128.496,3.855 0,-258.036 36.499,0 0,-79.979 -36.499,0 0,-132.252 -173.796,-102.853 -356.395,102.853 -4.913,132.252 -102.709,0 -6.913,-173.9 -353.949,0 0,317.935 -52.096,0 -28.312,-66.201 -129.767,0 0,66.201 0,44.183 0,109.822 c -3.41,-0.38 -6.87,-0.579 -10.373,-0.579 l 0,-352.571 -227.293,17.529 3.344,224.968 -368.614,0 -18.844,-126.617 -94.184,26.65 -24.368,-56.595 -303.892,0 0,149.479 -40.301,11.402 0,215.111 -8.207,0.246 0,-481.117 -205.315,0 0,101.138 -84.929,0 0,-101.138 -205.318,0 -22.45,138.066 -163.584,0 0,-242.201 -205.315,0 0,101.138 -84.92904,0 0,-101.138 -205.317,0 -30.584,188.086 -25.271,0 -73.401,0 -36.077,0 -73.401,0 -42.397,0 -50.534,190.006 -124.786,0 0,4.086 -288.190004,0 0,1732.036 275.018004,0 90.418,0 5236.80804,0 0,8.561 462.983,0 0,-8.562 1469.339,0 88.247,0 277.188,0 0,-1643.827 -277.189,0 z m -4903.544,5.264 0,85.678 -295.56,8.867 3.576,-99.198 -4.571,-30.727 358.604,0 0.524,35.38 -62.573,0 z m 955.84,57.005 -75.36,2.26 -11.001,-276.746 96.558,0 -10.197,274.486 z"
     id="path3"
     inkscape:connector-curvature="0"
     style="fill:#9f2a29" /></svg>