<?xml version="1.0" encoding="UTF-8" standalone="no"?>
<!-- Generator: Adobe Illustrator 16.0.0, SVG Export Plug-In . SVG Version: 6.00 Build 0)  -->

<svg
   xmlns:dc="http://purl.org/dc/elements/1.1/"
   xmlns:cc="http://creativecommons.org/ns#"
   xmlns:rdf="http://www.w3.org/1999/02/22-rdf-syntax-ns#"
   xmlns:svg="http://www.w3.org/2000/svg"
   xmlns="http://www.w3.org/2000/svg"
   xmlns:sodipodi="http://sodipodi.sourceforge.net/DTD/sodipodi-0.dtd"
   xmlns:inkscape="http://www.inkscape.org/namespaces/inkscape"
   version="1.1"
   id="Layer_1"
   x="0px"
   y="0px"
   width="7880"
   height="2725.6499"
   viewBox="-326.53 -722.55 7880 2725.6499"
   enable-background="new -326.53 -722.55 8000 4000"
   xml:space="preserve"
   inkscape:version="0.91 r13725"
   sodipodi:docname="skylinefront.svg"><metadata
     id="metadata9"><rdf:RDF><cc:Work
         rdf:about=""><dc:format>image/svg+xml</dc:format><dc:type
           rdf:resource="http://purl.org/dc/dcmitype/StillImage" /><dc:title></dc:title></cc:Work></rdf:RDF></metadata><defs
     id="defs7" /><sodipodi:namedview
     pagecolor="#ffffff"
     bordercolor="#666666"
     borderopacity="1"
     objecttolerance="10"
     gridtolerance="10"
     guidetolerance="10"
     inkscape:pageopacity="0"
     inkscape:pageshadow="2"
     inkscape:window-width="1920"
     inkscape:window-height="1017"
     id="namedview5"
     showgrid="false"
     fit-margin-top="0"
     fit-margin-left="-10"
     fit-margin-right="-10"
     fit-margin-bottom="0"
     inkscape:zoom="0.10182338"
     inkscape:cx="6902.0902"
     inkscape:cy="987.26114"
     inkscape:window-x="2552"
     inkscape:window-y="-8"
     inkscape:window-maximized="1"
     inkscape:current-layer="Layer_1" /><path
     d="m 7333.772,325.84801 -52.942,-199.056 -44.416,0 0,-81.92799 -76.898,0 0,81.92799 -37.794,0 0,-81.92799 -76.899,0 0,81.92799 -355.807,0 0,72.855 -84.782,0 -59.951,137.255 -59.34,0 0,185.293 -142.681,99.376 0,-611.27799 -39.833,-244.95501 -215.095,0 0,105.952 -88.974,0 0,-105.952 -215.094,0 0,511.616 -52.585,188.037 0,-289.275 -42.22,-11.946 0,-156.597989 -318.365,0 -25.53,59.290999 -98.669,-27.924 -29.562,198.62999 -377.328,0 4.479,-301.66299 -238.116,-18.361 0,369.36399 c -44.63,0 -82.726,30.302 -97.744,72.955 l 0,-507.029 0,-55.594 0,-83.294 -135.946,0 -29.659,83.294 -54.576,0 0,-400.026 -370.805,0 -24.599,743.136 -41.08,0 0,-73.74099 -45.184,0 -6.517,-317.17301 -10.332,0 -7.819,317.17301 -300.958,0 0,127.07099 -78.242,0 -14.368,296.366 -122.367,-51.547 -93.256,57.685 0,-43.756 20.253,0 0,-56.501 -20.253,0 0,-53.578 21.556,0 0,-56.504 -21.556,0 0,-113.404 -218.748,0 0,-143.80599 -83.188,-26.957999 0,-492.386011 61.619,-31.089 0,-66.783 -61.619,0 -104.756,0 0,-133.57 -332.754,0 -30.81,133.567 -73.946,0 -61.62,0 0,66.783 61.62,31.089 -23.816,795.89 -98.927,0 0,-302.301989 -362.846,-198.241011 -76.711,180.55601 -25.194,-472.53801 -66.427,-133.954 -72.985,36.636 -52.134,-36.637 -293.487,133.954 0,620.179 -125.274,-36.15199 -19.771,11.70099 -15.941,-32.59699 -27.642,15.878 16.124,32.96799 -23.448,13.875 -16.278,-33.284 -27.642,15.877 16.461,33.655 -20.594,12.187 -16.595,-33.933 -27.641,15.876 16.777,34.306 -35.884,21.237 0,236.682 -180.852,178.514 -6.392,-83.427 -141.327,0 -11.805,-257.296 -14.707,-48.654 -132.414,-35.254 0,-146.59899 -22.256,0 -157.23,-164.29901 -157.23,164.29901 -22.257,0 0,146.60099 -131.643994,35.251 -0.77,0 -14.707,48.654 0.77,0 -0.039,69.969 -188.216006,29.966 0,65.257 -103.295,0 0,1559.40999 103.296,0 319.149006,0 7477.554994,0 0,-615.639 0,-29.395 0,-1032.22199 -229.698,10e-4 0,0 z m -7247.104994,1.459 -67.917,0 0,-48.801 82.623994,0 -14.706994,48.801 z m 388.384994,0 -14.708,-48.801 80.453,9.165 2.942,39.636 -68.687,0 z m 1821.909,209.443 -91.985,0 0,-148.18 96.418,0 -4.433,148.18 z m 2691.388,-84.72 -18.187,-52.171 -66.325,0 0,-84.437 307.108,0 4.926,136.61 -227.522,0 0,0 z m 1353.921,754.36499 0,-2.822 3.491,2.822 -3.491,0 z"
     id="path3"
     inkscape:connector-curvature="0"
     style="fill:#010101" /></svg>