<?xml version="1.0" encoding="utf-8"?>
<!-- Generator: Adobe Illustrator 16.0.0, SVG Export Plug-In . SVG Version: 6.00 Build 0)  -->
<!DOCTYPE svg PUBLIC "-//W3C//DTD SVG 1.1//EN" "http://www.w3.org/Graphics/SVG/1.1/DTD/svg11.dtd">
<svg version="1.1" id="Layer_1" xmlns="http://www.w3.org/2000/svg" xmlns:xlink="http://www.w3.org/1999/xlink" x="0px" y="0px"
	 width="9045.234px" height="3035.413px" viewBox="0 -766.505 9045.234 3035.413"
	 enable-background="new 0 -766.505 9045.234 3035.413" xml:space="preserve">
<path fill="#9F2A29" d="M8195.43,199.35v-56.163v-39.765l-198.395-31.586v-211.453l-98.619-61.005l-118.31,49.838l-62.973-60.544
	l-116.188,27.807l-82.994-27.807l-467.205,101.665V115.65l-16.951-10.034l16.018-32.746l-26.387-15.156l-15.842,32.392
	l-19.658-11.633l15.713-32.125l-26.386-15.156l-15.538,31.771l-22.381-13.244l15.391-31.468l-26.387-15.156l-15.216,31.114
	l-18.872-11.17l-256.406,73.995v-318.507l-280.146-127.864l-49.764,34.971l-69.669-34.971l-54.803,110.51L5868.06-66.505v279.512
	l-119.121,3.573L5736.642-53h-74.686v-128.935h-287.275h-23.546h-43.129v74.822h-102.289v339.989l-220.864,6.625v-35.898h-60.359
	v37.71l-128.496,3.855V-12.868h36.499v-79.979h-36.499v-132.252l-173.796-102.853l-356.395,102.853l-4.913,132.252h-102.709
	l-6.913-173.9h-353.949V51.188h-52.096l-28.312-66.201h-129.767v66.201v44.183v109.822c-3.41-0.38-6.87-0.579-10.373-0.579v-352.571
	l-227.293,17.529l3.344,224.968h-368.614l-18.844-126.617l-94.184,26.65l-24.368-56.595h-303.892V87.457l-40.301,11.402V313.97
	l-8.207,0.246v-481.117h-205.315v101.138h-84.929v-101.138h-205.318l-22.45,138.066H1812.82v-242.201h-205.315v101.138h-84.929
	v-101.138h-205.317L1286.675-82.95h-25.271h-73.401h-36.077h-73.401h-42.397l-50.534,190.006H860.808v4.086h-288.19v1732.036
	h275.018h90.418h5236.808v8.561h462.983v-8.562h1469.339h88.247h277.188V199.35H8195.43z M3291.886,204.614v85.678l-295.56,8.867
	l3.576-99.198l-4.571-30.727h358.604l0.524,35.38H3291.886z M4247.726,261.619l-75.36,2.26l-11.001-276.746h96.558L4247.726,261.619
	z"/>
</svg>
