<?xml version="1.0" encoding="utf-8"?>
<!-- Generator: Adobe Illustrator 16.0.0, SVG Export Plug-In . SVG Version: 6.00 Build 0)  -->
<!DOCTYPE svg PUBLIC "-//W3C//DTD SVG 1.1//EN" "http://www.w3.org/Graphics/SVG/1.1/DTD/svg11.dtd">
<svg version="1.1" id="Layer_1" xmlns="http://www.w3.org/2000/svg" xmlns:xlink="http://www.w3.org/1999/xlink" x="0px" y="0px"
	 width="8000px" height="2000px" viewBox="-1996 -536 8000 2000" enable-background="new -1996 -536 8000 2000"
	 xml:space="preserve">
<g enable-background="new    ">
	<path fill="#010101" d="M-1292.5,266.748V16.783c0-86.722,55.649-147.939,136.033-147.939h587.42V15.083l-52.558,153.043h-332.358
		v54.413l293.711,215.958c74.2,54.413,91.205,107.126,91.205,202.353v270.37c0,86.723-55.651,147.939-134.489,147.939H-1292.5
		V761.578h384.917v-78.219l-293.711-214.259C-1275.497,412.984-1292.5,361.971-1292.5,266.748z"/>
	<path fill="#010101" d="M335.268-131.158v1190.312h-675.532c-80.384,0-136.033-61.217-136.033-147.939V-131.158h338.539v892.736
		H-3.268v-892.736H335.268L335.268-131.158z"/>
	<path fill="#010101" d="M1003.071,419.786L958.242,16.781v-147.939H1270.5v1190.312H911.867l-159.222-549.24h-26.281
		l43.283,401.304v147.939H458.936V-131.155h358.634l157.678,550.943L1003.071,419.786L1003.071,419.786z"/>
	<path fill="#010101" d="M1394.169,1059.154V-131.158H2069.7c78.837,0,134.489,61.217,134.489,147.939v894.434
		c0,86.723-55.648,147.939-134.489,147.939H1394.169z M1731.161,761.578h136.034V168.123h-136.034V761.578z"/>
	<path fill="#010101" d="M2463.877,1059.154c-80.386,0-136.033-61.217-136.033-147.939V16.781
		c0-86.723,55.647-147.939,136.033-147.939h539.498c80.384,0,136.033,61.217,136.033,147.939v894.434
		c0,86.723-55.647,147.939-136.033,147.939H2463.877z M2666.385,168.123v593.456h134.488V168.123H2666.385L2666.385,168.123z"/>
	<path fill="#010101" d="M3955.613-131.158l83.475,573.05h27.824v-573.05h329.266V16.781l-109.753,1042.373h-378.733l-81.93-467.624
		h-23.188l-81.927,467.624h-377.186L3232.16,16.781v-147.939h330.812v573.05h26.277l83.477-573.05H3955.613z"/>
	<path fill="#010101" d="M5033.07,419.786l-44.832-403.005v-147.939H5300.5v1190.312h-358.637l-159.22-549.24h-26.282
		l43.285,401.304v147.939h-310.711V-131.155h358.635l157.675,550.943L5033.07,419.786L5033.07,419.786z"/>
</g>
</svg>
